<svg width="40" height="40" viewBox="0 0 40 40" fill="none" stroke="none" stroke-opacity="0" xmlns="http://www.w3.org/2000/svg">
<path d="M37.4444 20.1111C33.7 13.1889 27.1333 9 19.8667 9C12.6 9 6.02222 13.1889 2.31111 20.1111L2 20.6333L2.28889 21.1667C6.03333 28.0889 12.6 32.2778 19.8667 32.2778C27.1333 32.2778 33.7111 28.1444 37.4444 21.1667L37.7333 20.6333L37.4444 20.1111ZM19.8667 30C13.6111 30 7.86667 26.5111 4.53333 20.6333C7.86667 14.7556 13.6111 11.2667 19.8667 11.2667C26.1222 11.2667 31.8 14.7667 35.1889 20.6333C31.8 26.5111 26.1111 30 19.8667 30V30Z" fill="white"/>
<path d="M20.0998 12.4111C18.5933 12.4221 17.1238 12.8793 15.8769 13.725C14.6301 14.5706 13.6618 15.7668 13.0944 17.1625C12.527 18.5581 12.386 20.0906 12.689 21.5664C12.9921 23.0422 13.7257 24.395 14.7972 25.4541C15.8687 26.5132 17.23 27.231 18.7092 27.5169C20.1884 27.8027 21.7191 27.6438 23.1081 27.0602C24.497 26.4766 25.6819 25.4945 26.513 24.2379C27.3441 22.9813 27.7841 21.5065 27.7776 20C27.7732 18.9971 27.571 18.005 27.1825 17.0804C26.794 16.1559 26.2269 15.3171 25.5137 14.6121C24.8004 13.9071 23.9551 13.3498 23.0261 12.9721C22.097 12.5944 21.1026 12.4038 20.0998 12.4111V12.4111ZM20.0998 25.4333C19.0356 25.4223 17.9984 25.0972 17.1185 24.4987C16.2385 23.9001 15.555 23.055 15.1538 22.0692C14.7527 21.0835 14.6517 20.0013 14.8636 18.9584C15.0755 17.9155 15.5908 16.9584 16.3449 16.2074C17.0989 15.4565 18.0581 14.945 19.1018 14.7374C20.1456 14.5297 21.2274 14.6351 22.2115 15.0403C23.1956 15.4455 24.038 16.1325 24.6329 17.0149C25.2278 17.8973 25.5487 18.9358 25.5554 20C25.5583 20.7162 25.4191 21.4259 25.1457 22.0879C24.8723 22.7499 24.4702 23.351 23.9627 23.8564C23.4552 24.3618 22.8525 24.7615 22.1894 25.0322C21.5262 25.3028 20.816 25.4392 20.0998 25.4333V25.4333Z" fill="white"/>
<rect x="2.40479" y="8" width="44.1765" height="2.62581" transform="rotate(32.3472 2.40479 8)" fill="white"/>
</svg>
