<svg width="40" height="40" viewBox="0 0 40 40" fill="none" xmlns="http://www.w3.org/2000/svg">
<path d="M37.3556 19.4777C33.6111 12.5555 27.0445 8.36664 19.7778 8.36664C12.5111 8.36664 5.93336 12.5555 2.22224 19.4777L1.91113 20L2.20002 20.5333C5.94447 27.4555 12.5111 31.6444 19.7778 31.6444C27.0445 31.6444 33.6222 27.5111 37.3556 20.5333L37.6445 20L37.3556 19.4777ZM19.7778 29.3666C13.5222 29.3666 7.7778 25.8777 4.44447 20C7.7778 14.1222 13.5222 10.6333 19.7778 10.6333C26.0334 10.6333 31.7111 14.1333 35.1 20C31.7111 25.8777 26.0222 29.3666 19.7778 29.3666V29.3666Z" fill="white"/>
<path d="M20.0998 12.4111C18.5933 12.4221 17.1238 12.8793 15.8769 13.725C14.6301 14.5706 13.6618 15.7668 13.0944 17.1625C12.527 18.5581 12.386 20.0906 12.689 21.5664C12.9921 23.0422 13.7257 24.395 14.7972 25.4541C15.8687 26.5132 17.23 27.231 18.7092 27.5169C20.1884 27.8027 21.7191 27.6438 23.1081 27.0602C24.497 26.4766 25.6819 25.4945 26.513 24.2379C27.3441 22.9813 27.7841 21.5065 27.7776 20C27.7732 18.9971 27.571 18.005 27.1825 17.0804C26.794 16.1559 26.2269 15.3171 25.5137 14.6121C24.8004 13.9071 23.9551 13.3498 23.0261 12.9721C22.097 12.5944 21.1026 12.4038 20.0998 12.4111V12.4111ZM20.0998 25.4333C19.0356 25.4223 17.9984 25.0972 17.1185 24.4987C16.2385 23.9001 15.555 23.055 15.1538 22.0692C14.7527 21.0835 14.6517 20.0013 14.8636 18.9584C15.0755 17.9155 15.5908 16.9584 16.3449 16.2074C17.0989 15.4565 18.0581 14.945 19.1018 14.7374C20.1456 14.5297 21.2274 14.6351 22.2115 15.0403C23.1956 15.4455 24.038 16.1325 24.6329 17.0149C25.2278 17.8973 25.5487 18.9358 25.5554 20C25.5583 20.7162 25.4191 21.4259 25.1457 22.0879C24.8723 22.7499 24.4702 23.351 23.9627 23.8564C23.4552 24.3618 22.8525 24.7615 22.1894 25.0322C21.5262 25.3028 20.816 25.4392 20.0998 25.4333V25.4333Z" fill="white"/>
</svg>
